<svg xmlns="http://www.w3.org/2000/svg" viewBox="0 0 120 120" fill="none">
  <rect width="120" height="120" rx="28" fill="#2d6a4f"/>
  <path d="M30 75c8-22 28-38 52-38 4 0 8 .5 12 1.5-6 18-22 32-42 38-8 2.5-15 2-22-1.5z" fill="#95d5b2" opacity=".9"/>
  <path d="M38 48c6-10 16-16 28-16 6 0 12 1.5 17 4.5-4 12-14 20-26 22-5 1.5-12 1-19-10.5z" fill="#b7e4c7"/>
  <circle cx="78" cy="42" r="6" fill="#d8f3dc"/>
  <text x="60" y="98" text-anchor="middle" fill="#fff" font-family="system-ui,sans-serif" font-size="11" font-weight="700" letter-spacing="2">HF</text>
</svg>
